<?xml version="1.0" encoding="UTF-8"?>
<svg version="1.1" xmlns="http://www.w3.org/2000/svg" width="512" height="512">
<path d="M0 0 C168.96 0 337.92 0 512 0 C512 168.96 512 337.92 512 512 C343.04 512 174.08 512 0 512 C0 343.04 0 174.08 0 0 Z " fill="#3458FF" transform="translate(0,0)"/>
<path d="M0 0 C118.14 0 236.28 0 358 0 C358 118.14 358 236.28 358 358 C239.86 358 121.72 358 0 358 C0 239.86 0 121.72 0 0 Z " fill="#F8F7ED" transform="translate(77,77)"/>
<path d="M0 0 C118.14 0 236.28 0 358 0 C358 118.14 358 236.28 358 358 C239.86 358 121.72 358 0 358 C0 239.86 0 121.72 0 0 Z M103.02734375 6.609375 C101.78752367 9.49443161 101.13122457 12.15557313 100.5625 15.25 C100.44543701 15.87463135 100.32837402 16.4992627 100.20776367 17.14282227 C98.32117643 27.40076127 96.67415106 37.70569756 95 48 C93.97640381 48.13575439 92.95280762 48.27150879 91.89819336 48.41137695 C88.07434941 48.92123985 84.25241927 49.44439571 80.4309082 49.97143555 C78.78165573 50.19703094 77.13191589 50.41909434 75.48168945 50.63745117 C73.0996808 50.95327775 70.71975677 51.28207501 68.33984375 51.61328125 C67.61039047 51.70716629 66.88093719 51.80105133 66.12937927 51.89778137 C61.40806238 52.57123663 55.51005432 53.48994568 52 57 C50.89075464 72.05664191 53.30739248 86.70740426 55.51269531 101.56005859 C56.56866351 109.01426298 57.29073912 116.50609885 58 124 C57.19175781 123.96519531 56.38351563 123.93039063 55.55078125 123.89453125 C53.94783203 123.85392578 53.94783203 123.85392578 52.3125 123.8125 C51.25675781 123.77769531 50.20101562 123.74289063 49.11328125 123.70703125 C45.60934385 124.03676187 43.80301489 124.91415288 41 127 C39.04362885 130.9127423 39.81807588 135.81277423 39.82421875 140.11328125 C39.82564377 141.23559647 39.82706879 142.35791168 39.82853699 143.51423645 C39.90269865 154.07721408 40.61595265 164.53669685 41.53814697 175.05502319 C42.01991464 180.55569529 42.46696222 186.05923496 42.91796875 191.5625 C43.01033813 192.68001144 43.10270752 193.79752289 43.19787598 194.94889832 C44.14486592 206.51976173 44.89832863 218.10104183 45.625 229.6875 C46.41712224 242.26183351 47.25285531 254.82143151 48.36938477 267.37207031 C48.98000421 274.34945874 49.37670003 281.3264541 49.65869141 288.32470703 C49.81565784 292.05889825 50.05876644 295.74483489 50.5 299.45703125 C51.06236595 304.2167438 51.25282079 308.96326413 51.4375 313.75 C51.18534945 327.36129884 51.18534945 327.36129884 55.99804688 339.16601562 C60.16920918 341.71430541 63.16473849 341.28991874 67.921875 340.875 C68.82854919 340.81368896 69.73522339 340.75237793 70.66937256 340.68920898 C72.68458852 340.55120863 74.69917601 340.40380779 76.71313477 340.24853516 C80.17397129 339.98684522 83.63576247 339.76107925 87.09960938 339.54296875 C93.5002349 339.13791624 99.89895007 338.70902834 106.29736328 338.27050781 C109.62174044 338.04299639 112.94627562 337.81819066 116.27093887 337.59492493 C119.49846473 337.37769956 122.72578563 337.15747597 125.953125 336.9375 C127.13134827 336.85830322 128.30957153 336.77910645 129.52349854 336.69750977 C135.07802335 336.31425188 140.60355937 335.85727235 146.13323975 335.20751953 C148.4727223 334.94744954 150.80450551 334.81063029 153.15625 334.71875 C154.03410156 334.68136719 154.91195312 334.64398438 155.81640625 334.60546875 C157.60546875 334.53515625 159.39453125 334.46484375 161.18359375 334.39453125 C165.24578098 334.2215453 169.27034508 334.0049656 173.30859375 333.5234375 C179.37480845 332.80161788 185.46649491 332.49328886 191.5625 332.125 C200.30737973 331.58311361 209.0489699 331.01237949 217.78515625 330.34375 C218.53594955 330.28629608 219.28674286 330.22884216 220.06028748 330.16964722 C223.21633496 329.92725007 226.37228858 329.68371193 229.52804565 329.43756104 C240.61770273 328.57525721 251.71076244 327.81854354 262.81378555 327.14991379 C264.90311296 327.02362711 266.99232818 326.89562976 269.08151245 326.76699829 C270.11750422 326.70324918 270.11750422 326.70324918 271.17442513 326.6382122 C272.57121222 326.55223253 273.96799541 326.46618946 275.3647747 326.38008308 C279.50982086 326.12574682 283.65536516 325.88341335 287.80160141 325.64933205 C291.02720776 325.4638823 294.25177852 325.26166734 297.4765625 325.0625 C299.24114807 324.96876602 299.24114807 324.96876602 301.04138184 324.87313843 C307.73501839 324.44277684 313.04257612 323.95742388 318 319 C319.52909072 305.62506188 317.09395952 291.2262263 316.0625 277.875 C315.69593205 273.08097353 315.33282419 268.28669895 314.97265625 263.4921875 C314.88529205 262.3353949 314.79792786 261.17860229 314.70791626 259.98675537 C314.12358118 252.09833696 313.65349315 244.21123123 313.33839417 236.30734253 C313.14776019 231.81123728 312.67101742 227.45614883 312 223 C311.90027351 221.55381151 311.82656393 220.10538773 311.7890625 218.65625 C311.76271729 217.84244873 311.73637207 217.02864746 311.70922852 216.19018555 C311.68143311 215.30242432 311.6536377 214.41466309 311.625 213.5 C311.02638184 197.49729679 309.6399583 181.54702102 308.36425781 165.58740234 C307.95460427 160.44996365 307.5642671 155.31113846 307.17822266 150.171875 C306.94426836 147.08918308 306.69940245 144.00750967 306.453125 140.92578125 C306.12476892 136.77925107 305.85395384 132.63275037 305.609375 128.48046875 C305.46892329 126.38280089 305.32830486 124.28514418 305.1875 122.1875 C305.14165771 121.23166016 305.09581543 120.27582031 305.04858398 119.29101562 C304.74949712 115.13177985 304.28833434 112.49446272 302.1640625 108.8515625 C297.24719588 105.974285 292.73300109 106.71662361 287.1875 107.1875 C286.11306641 107.25775391 285.03863281 107.32800781 283.93164062 107.40039062 C281.28519427 107.57682038 278.64289709 107.77740348 276 108 C276.24234375 106.88109375 276.4846875 105.7621875 276.734375 104.609375 C279.14356115 93.18728388 280.97438327 81.74561768 282.56054688 70.18139648 C283.47816056 63.52458443 284.50137982 56.91493781 285.75 50.3125 C286.77778374 44.74580103 287.30819809 39.65029836 287 34 C282.78399146 31.68676362 279.15075963 30.45389129 274.40625 29.71875 C273.14079346 29.51838135 271.87533691 29.3180127 270.5715332 29.11157227 C269.21440065 28.90741428 267.85722175 28.70356417 266.5 28.5 C265.08737868 28.28054163 263.67486321 28.06040092 262.26245117 27.83959961 C253.77467778 26.52313236 245.27231324 25.33734399 236.75488281 24.22998047 C228.05232257 23.06826929 219.4049255 21.59218148 210.75 20.125 C198.62245742 18.0691629 186.48661239 16.13489585 174.3125 14.375 C164.3849949 12.9393296 154.46566673 11.47235935 144.5625 9.875 C143.56130127 9.71402832 142.56010254 9.55305664 141.52856445 9.38720703 C136.86931116 8.63505102 132.21273396 7.86909829 127.55859375 7.0859375 C126.70128662 6.94430176 125.84397949 6.80266602 124.96069336 6.65673828 C123.39668013 6.398216 121.83355869 6.13419241 120.27172852 5.86279297 C111.20751582 3.96727567 111.20751582 3.96727567 103.02734375 6.609375 Z " fill="#F9F7EE" transform="translate(77,77)"/>
<path d="M0 0 C2.75078305 0.29328445 5.46204928 0.71582866 8.1875 1.1875 C8.98663818 1.31914551 9.78577637 1.45079102 10.60913086 1.58642578 C13.4075132 2.0494731 16.20380509 2.52392568 19 3 C23.68698385 3.79474944 28.3744722 4.5864312 33.0625 5.375 C34.33996094 5.59003174 35.61742187 5.80506348 36.93359375 6.02661133 C47.0280475 7.71435837 57.14391877 9.21773144 67.27383423 10.6751709 C79.95863689 12.50450337 92.60485737 14.54040612 105.25 16.625 C121.84767374 19.36711003 121.84767374 19.36711003 138.5 21.75 C139.32338867 21.85844238 140.14677734 21.96688477 140.99511719 22.07861328 C142.55009738 22.28247712 144.10510908 22.4861008 145.66015625 22.68945312 C149.94546683 23.2582047 154.22403 23.86500369 158.5 24.5 C159.27279297 24.60666992 160.04558594 24.71333984 160.84179688 24.82324219 C165.39227178 25.51535278 168.94379101 26.68950121 173 29 C173.4590485 37.9361442 171.72905705 46.49207111 170.1875 55.25 C169.63012307 58.47848742 169.07827152 61.7079065 168.52734375 64.9375 C168.39236481 65.72545959 168.25738586 66.51341919 168.11831665 67.32525635 C166.91123006 74.4160183 165.86209132 81.5239073 164.93823242 88.65722656 C164.28561734 93.5547842 163.27496117 98.22429801 162 103 C162.6705542 102.94352295 163.3411084 102.8870459 164.03198242 102.82885742 C167.08236317 102.58751731 170.13411913 102.38715118 173.1875 102.1875 C174.24259766 102.09791016 175.29769531 102.00832031 176.38476562 101.91601562 C180.95862525 101.64187262 184.03285893 101.49053465 188.13671875 103.65234375 C191.10600377 108.98709692 191.21104922 114.35406732 191.625 120.375 C191.7358872 121.75476658 191.84840295 123.13440308 191.96240234 124.51391602 C192.34926052 129.33993643 192.67810419 134.16926668 193 139 C193.06445312 139.9620636 193.12890625 140.9241272 193.1953125 141.91534424 C193.82206519 151.31418634 194.43375654 160.71391375 194.99853516 170.11669922 C195.08796387 171.59419899 195.08796387 171.59419899 195.17919922 173.10154724 C195.29016436 174.94489864 195.39920441 176.78836746 195.50585938 178.63197327 C195.7953324 183.442237 196.22384524 188.20979939 196.78231812 192.99604797 C197.05984349 195.55091163 197.19203039 198.09615122 197.28125 200.6640625 C197.31863281 201.64117187 197.35601562 202.61828125 197.39453125 203.625 C197.46511807 205.63280287 197.53542845 207.64061549 197.60546875 209.6484375 C197.64285156 210.62296875 197.68023437 211.5975 197.71875 212.6015625 C197.74904297 213.47119629 197.77933594 214.34083008 197.81054688 215.23681641 C197.96751276 218.07325725 197.96751276 218.07325725 198.47485352 221.15014648 C199.14889498 226.09155043 199.41498729 231.01842483 199.68359375 235.99609375 C199.74402359 237.06126724 199.80445343 238.12644073 199.86671448 239.22389221 C200.12309351 243.74382144 200.37270669 248.26411632 200.62231445 252.78442383 C201.35094658 265.90462757 202.17751801 279.00199313 203.32981873 292.09263611 C204.89020221 309.84157289 204.89020221 309.84157289 204 314 C199.85120819 318.07260365 196.35847084 319.07900233 190.69458008 319.43310547 C189.6011882 319.50354065 188.50779633 319.57397583 187.38127136 319.64654541 C185.59346001 319.75576324 185.59346001 319.75576324 183.76953125 319.8671875 C182.52782669 319.9464447 181.28612213 320.0257019 180.00679016 320.10736084 C177.33414477 320.27774438 174.66145402 320.44678648 171.98858643 320.61358643 C164.99567375 321.05033111 158.00371302 321.50195683 151.01171875 321.953125 C150.31672272 321.99785069 149.62172668 322.04257637 148.90567017 322.08865738 C136.97265831 322.85741989 125.04717968 323.70389777 113.125 324.625 C100.01279364 325.63703166 86.89938303 326.56091419 73.77197266 327.35400391 C68.1743017 327.69817715 62.62012376 328.12363749 57.05151367 328.78564453 C53.50052445 329.15667494 49.94150203 329.24705706 46.375 329.375 C36.16798689 329.80510507 25.99544347 330.57362229 15.8125 331.375 C12.44272287 331.63950845 9.07293291 331.90385271 5.703125 332.16796875 C4.84188522 332.2354985 3.98064545 332.30302826 3.0933075 332.37260437 C-6.32019219 333.10788582 -15.73633365 333.80566715 -25.15396118 334.48590088 C-26.99419156 334.61918044 -28.83434256 334.75356093 -30.67440796 334.88909912 C-33.25018923 335.07865381 -35.8262164 335.26443452 -38.40234375 335.44921875 C-39.15594177 335.50531815 -39.90953979 335.56141754 -40.68597412 335.61921692 C-54.01345131 336.55922011 -54.01345131 336.55922011 -57.921875 334.34375 C-63.70574256 327.8205911 -62.33536548 314.63714313 -62.65917969 306.24414062 C-62.80850758 302.38624678 -63.01495609 298.57284035 -63.47265625 294.73828125 C-64.1943887 288.65614729 -64.50578289 282.54930544 -64.875 276.4375 C-65.65124724 263.90879273 -66.54747636 251.39146357 -67.5 238.875 C-68.45510655 226.30903761 -69.38849856 213.74294606 -70.22607422 201.16845703 C-70.70128492 194.10155021 -71.22780385 187.04099203 -71.7890625 179.98046875 C-74.28137807 148.40956599 -74.28137807 148.40956599 -74.4375 134.1875 C-74.4595752 133.18686523 -74.48165039 132.18623047 -74.50439453 131.15527344 C-74.48468531 124.6558678 -74.48468531 124.6558678 -72.09765625 121.42578125 C-68.45430358 118.94938698 -66.27724365 118.89066762 -61.875 118.9375 C-60.77929688 118.94652344 -59.68359375 118.95554687 -58.5546875 118.96484375 C-57.71164063 118.97644531 -56.86859375 118.98804688 -56 119 C-56.43525464 115.31223161 -56.87373472 111.6248522 -57.3125 107.9375 C-57.44567627 106.80876465 -57.57885254 105.6800293 -57.71606445 104.51708984 C-58.37766468 98.96460894 -59.06684713 93.42104522 -59.8671875 87.88671875 C-61.19125751 78.6761664 -62.29865171 69.56448098 -62.4375 60.25 C-62.45965576 59.4573877 -62.48181152 58.66477539 -62.50463867 57.84814453 C-62.49240932 54.68878002 -62.47152628 52.57853099 -60.43359375 50.078125 C-57.23196822 48.65974836 -54.06085313 48.02769896 -50.625 47.5 C-49.90127197 47.38035889 -49.17754395 47.26071777 -48.43188477 47.13745117 C-38.65203685 45.55793748 -28.82288675 44.27874331 -19 43 C-18.89453857 42.351521 -18.78907715 41.70304199 -18.68041992 41.03491211 C-15.13644634 19.31533448 -15.13644634 19.31533448 -13.4375 10.25 C-13.22996094 9.12078125 -13.02242187 7.9915625 -12.80859375 6.828125 C-10.64262536 -0.74753256 -7.17643776 -0.63514759 0 0 Z M154.5234375 122.40234375 C153.54100571 122.46537437 153.54100571 122.46537437 152.53872681 122.52967834 C151.1725263 122.61808483 149.80642578 122.70804986 148.44042969 122.79956055 C146.37199923 122.93770041 144.30324443 123.0697879 142.234375 123.20117188 C134.80009166 123.67499764 134.80009166 123.67499764 127.39526367 124.47509766 C121.44284698 125.24579882 115.45224053 125.55264754 109.46484375 125.93359375 C107.45802453 126.06433118 105.45120541 126.19507027 103.4443922 126.32590008 C101.35594609 126.46165605 99.26743167 126.59631162 97.17889404 126.73065186 C86.61404324 127.41058566 76.05041265 128.10951472 65.48657227 128.80493164 C62.82940053 128.97934315 60.17219271 129.15301403 57.51489258 129.32543945 C53.59436828 129.57989874 49.6741344 129.83867305 45.75390625 130.09765625 C43.98062706 130.21174583 43.98062706 130.21174583 42.17152405 130.32814026 C36.73048573 130.69067759 31.39845572 131.21954425 26 132 C23.04408373 132.20768158 20.08569799 132.3201589 17.125 132.4375 C5.05738314 132.98079125 -6.96426314 133.98742624 -19 135 C-21.16794406 135.17998517 -23.33591275 135.35967384 -25.50390625 135.5390625 C-30.39036896 135.94403646 -35.27655738 136.35217117 -40.16259766 136.76220703 C-45.1082416 137.1766845 -50.05412837 137.58824983 -55 138 C-54.93868896 138.75947433 -54.87737793 139.51894867 -54.81420898 140.30143738 C-54.18097882 148.31407448 -53.65392801 156.32912429 -53.18405151 164.35289955 C-53.05897294 166.48592999 -52.93217476 168.6188524 -52.80493164 170.75175476 C-52.44400379 176.80514361 -52.08531749 182.85866255 -51.72949219 188.91235352 C-51.51010598 192.64276021 -51.2881673 196.37300805 -51.06466675 200.10317039 C-50.98078209 201.51158133 -50.8978549 202.92004967 -50.81594849 204.32857704 C-50.41261825 211.2611272 -49.92050938 218.11777659 -49 225 C-48.83328507 227.25750292 -48.6901481 229.51686753 -48.5703125 231.77734375 C-48.49868896 233.07575195 -48.42706543 234.37416016 -48.35327148 235.71191406 C-48.31628143 236.39870239 -48.27929138 237.08549072 -48.24118042 237.79309082 C-47.23893325 256.29214627 -45.90603055 274.76474901 -44.50299072 293.23719788 C-44.22442683 296.91561326 -43.95722386 300.59385419 -43.72314453 304.27539062 C-43.6404834 305.55091797 -43.55782227 306.82644531 -43.47265625 308.140625 C-43.4044165 309.25469727 -43.33617676 310.36876953 -43.26586914 311.51660156 C-43.26925319 313.94001924 -43.26925319 313.94001924 -42 315 C-39.42684257 315.11698798 -36.8902572 315.16225393 -34.31640625 315.15234375 C-33.51715225 315.15040512 -32.71789825 315.14846649 -31.89442444 315.14646912 C-22.82726881 315.06803945 -13.80424988 314.44688057 -4.76489258 313.77319336 C-1.90944876 313.56040966 0.94652982 313.35659006 3.80273438 313.15429688 C5.6510783 313.0213417 7.49938704 312.88789611 9.34765625 312.75390625 C10.18531021 312.6934462 11.02296417 312.63298615 11.88600159 312.57069397 C16.57248699 312.22021153 21.23318498 311.76125866 25.90184021 311.22517395 C28.92994533 310.90019851 31.95995912 310.71155635 35 310.53515625 C36.28559814 310.45845703 37.57119629 310.38175781 38.89575195 310.30273438 C39.56434235 310.26365967 40.23293274 310.22458496 40.92178345 310.18432617 C51.39605749 309.57031859 61.85734117 308.88779284 72.3125 308 C82.83203936 307.11342061 93.35892876 306.51104374 103.8991394 305.94338989 C116.72244572 305.24691639 129.51467073 304.28876925 142.31332397 303.2371521 C152.5173153 302.40020351 162.7059643 301.64394802 172.94091797 301.29077148 C177.04696439 301.14280177 180.9570447 300.71316816 185 300 C184.54308016 293.22907056 184.08467703 286.45824282 183.625 279.6875 C183.52229294 278.17465927 183.52229294 278.17465927 183.41751099 276.6312561 C182.62543372 264.98058289 181.82051389 253.331679 180.9375 241.6875 C180.27427277 232.9416165 179.67974296 224.19324221 179.1265564 215.43969727 C178.26039929 201.73657799 177.28362378 188.04710658 176.1887207 174.3604126 C175.96584683 171.57283133 175.74366028 168.78519558 175.52148438 165.99755859 C174.35223069 151.33133841 173.17782418 136.66553423 172 122 C166.15582371 121.95704924 160.3586244 122.02442121 154.5234375 122.40234375 Z " fill="#26967B" transform="translate(191,82)"/>
<path d="M0 0 C5.3719328 -0.10828709 10.29264685 0.22414101 15.609375 1.13671875 C16.32151154 1.25631454 17.03364807 1.37591034 17.7673645 1.49913025 C19.29828167 1.7563335 20.82876061 2.01615668 22.35882568 2.27838135 C26.4839584 2.98417211 30.61275378 3.66753984 34.7421875 4.34765625 C35.59132721 4.48753967 36.44046692 4.6274231 37.31533813 4.77154541 C46.14761987 6.2115493 55.00675753 7.43049865 63.875 8.625 C74.53864929 10.06598379 85.15633906 11.62913525 95.74633789 13.54907227 C103.081186 14.87093786 110.43746838 15.98893238 117.8125 17.0625 C125.73822166 18.21805312 133.65917636 19.38639757 141.5625 20.6875 C142.30024658 20.80681885 143.03799316 20.9261377 143.7980957 21.04907227 C148.75746739 21.8787337 148.75746739 21.8787337 151 23 C149.80625069 33.53954985 148.24502406 43.99498056 146.53881836 54.46289062 C145.26388824 62.29213951 144.06532234 70.12956804 142.95141602 77.98339844 C142.10783135 83.78433729 142.10783135 83.78433729 141 86 C124.3062755 88.43484893 124.3062755 88.43484893 119.6015625 85.5078125 C117.7456498 82.78517914 116.41840868 79.97698952 115 77 C113.06799619 73.78981294 111.02827817 70.64997746 109 67.5 C107.95551776 65.8473097 106.91251439 64.19368373 105.87109375 62.5390625 C104.91411624 61.02600768 103.95708976 59.51298382 103 58 C102.62246582 57.39897461 102.24493164 56.79794922 101.85595703 56.17871094 C100.94116656 54.73365209 100.00309948 53.30339396 99.0625 51.875 C98.57910156 51.12992188 98.09570312 50.38484375 97.59765625 49.6171875 C95.45730237 47.45066793 94.01050788 47.24526363 91 47 C88.94598081 48.11131669 88.94598081 48.11131669 87.1875 49.94360352 C86.49914062 50.59475128 85.81078125 51.24589905 85.1015625 51.91677856 C84.06128906 52.94797318 84.06128906 52.94797318 83 54 C82.34773438 54.63050262 81.69546875 55.26100525 81.0234375 55.91061401 C78.99589547 57.88896316 76.9955046 59.89170514 75 61.90234375 C74.2788501 62.6249086 73.5577002 63.34747345 72.81469727 64.0919342 C70.54074585 66.37142604 68.27032046 68.6543924 66 70.9375 C64.44684765 72.49567506 62.89346433 74.05361993 61.33984375 75.61132812 C57.55722414 79.40489759 53.7774831 83.20131615 50 87 C45.22498317 84.86043734 42.46880051 81.15110402 39.2421875 77.16796875 C37.00529242 74.57291912 35.44022661 73.11672227 32.09765625 72.23046875 C27.49658151 73.37348479 25.08100261 76.12207502 21.8125 79.4375 C20.47120295 80.72255647 19.12875035 82.0064079 17.78515625 83.2890625 C15.55489206 85.45472136 13.38850216 87.64359064 11.24609375 89.8984375 C4.06093386 96.84746537 -2.64795582 97.12561328 -12.23046875 97.09765625 C-13.47441406 97.06542969 -14.71835938 97.03320312 -16 97 C-15.84966309 96.09386963 -15.69932617 95.18773926 -15.54443359 94.25415039 C-14.81739383 89.85756563 -14.09481363 85.46027293 -13.375 81.0625 C-13.24127991 80.24622131 -13.10755981 79.42994263 -12.9697876 78.58892822 C-11.36501003 68.76494214 -9.82123708 58.93527276 -8.40625 49.08203125 C-8.27707184 48.18438553 -8.14789368 47.28673981 -8.01480103 46.3618927 C-7.39394284 42.03430133 -6.78177603 37.70568855 -6.18115234 33.37524414 C-4.59745552 22.13377582 -2.46766612 11.08036577 0 0 Z " fill="#F8F7EE" transform="translate(194,101)"/>
<path d="M0 0 C5.25624717 0.00621239 10.23443342 0.43139577 15.40893555 1.3269043 C16.20807373 1.4585498 17.00721191 1.59019531 17.83056641 1.72583008 C20.62894874 2.18887739 23.42524063 2.66332998 26.22143555 3.1394043 C30.90841939 3.93415373 35.59590775 4.72583549 40.28393555 5.5144043 C41.56139648 5.72943604 42.83885742 5.94446777 44.1550293 6.16601562 C54.24948304 7.85376267 64.36535432 9.35713574 74.49526978 10.8145752 C87.18007244 12.64390766 99.82629292 14.67981042 112.47143555 16.7644043 C129.06910929 19.50651433 129.06910929 19.50651433 145.72143555 21.8894043 C146.54482422 21.99784668 147.36821289 22.10628906 148.21655273 22.21801758 C149.77153293 22.42188142 151.32654463 22.6255051 152.8815918 22.82885742 C157.16690238 23.39760899 161.44546555 24.00440798 165.72143555 24.6394043 C166.49422852 24.74607422 167.26702148 24.85274414 168.06323242 24.96264648 C172.61370732 25.65475707 176.16522656 26.82890551 180.22143555 29.1394043 C180.68048405 38.07554849 178.95049259 46.63147541 177.40893555 55.3894043 C176.85155862 58.61789171 176.29970706 61.84731079 175.7487793 65.0769043 C175.61380035 65.86486389 175.47882141 66.65282349 175.3397522 67.46466064 C174.13266561 74.5554226 173.08352686 81.6633116 172.15966797 88.79663086 C171.50673264 93.69659177 170.7118107 98.41638443 169.22143555 103.1394043 C165.60275996 104.34562949 162.29637304 104.24757347 158.53393555 104.2019043 C157.83204102 104.19739258 157.13014648 104.19288086 156.40698242 104.18823242 C154.67843017 104.17647356 152.94992189 104.15853883 151.22143555 104.1394043 C152.15932821 97.88064775 153.10185567 91.62260087 154.04736328 85.36499023 C154.36740031 83.24340005 154.68643906 81.121659 155.00439453 78.99975586 C156.85346724 66.66483936 158.79556497 54.37559895 161.22143555 42.1394043 C160.47837158 42.02983398 159.73530762 41.92026367 158.96972656 41.80737305 C155.24056789 41.25511296 151.51206421 40.69856765 147.78393555 40.1394043 C147.07359161 40.03291565 146.36324768 39.926427 145.63137817 39.81671143 C135.7299416 38.32742271 125.84263393 36.76312187 115.96362305 35.1315918 C114.37918648 34.87034515 114.37918648 34.87034515 112.76274109 34.6038208 C107.53566636 33.74088948 102.30967085 32.87200523 97.08496094 31.99487305 C85.9345516 30.13847184 74.78747118 28.49505201 63.55857849 27.18453979 C56.85902145 26.39356675 50.23436834 25.33993421 43.59643555 24.1394043 C32.51170481 22.14126572 21.39256923 20.57020613 10.22143555 19.1394043 C10.11186523 20.1087793 10.00229492 21.0781543 9.8894043 22.0769043 C9.09203767 28.90015821 8.18193056 35.64624916 6.84643555 42.3894043 C5.4306942 49.54267103 4.40389267 56.72921504 3.40893555 63.9519043 C1.81750189 75.42643491 -0.01263205 86.8467188 -1.96606445 98.2644043 C-2.09848541 99.04482086 -2.23090637 99.82523743 -2.36734009 100.62930298 C-2.74406813 102.84428828 -3.12557011 105.05838865 -3.5090332 107.2722168 C-3.72970459 108.54983887 -3.95037598 109.82746094 -4.17773438 111.14379883 C-4.77856445 114.1394043 -4.77856445 114.1394043 -5.77856445 116.1394043 C-13.66835596 117.99788852 -22.71884773 117.49299187 -30.77856445 117.1394043 C-32.29339786 115.62457089 -32.1069549 114.1329706 -32.33520508 112.02197266 C-32.43200562 111.14693588 -32.52880615 110.27189911 -32.62854004 109.37034607 C-32.7296106 108.41628372 -32.83068115 107.46222137 -32.93481445 106.47924805 C-33.04200806 105.50081436 -33.14920166 104.52238068 -33.25964355 103.51429749 C-33.60339833 100.36893188 -33.94113625 97.22295432 -34.27856445 94.0769043 C-34.61727488 90.95599848 -34.95720427 87.83522772 -35.29748535 84.7144928 C-35.50905179 82.77015467 -35.71947758 80.82569197 -35.92858887 78.88108826 C-36.0253894 77.98398636 -36.12218994 77.08688446 -36.22192383 76.16259766 C-36.30551147 75.38395859 -36.38909912 74.60531952 -36.47521973 73.80308533 C-36.88041267 70.24507139 -37.33439462 66.69276294 -37.77856445 63.1394043 C-29.85856445 62.4794043 -21.93856445 61.8194043 -13.77856445 61.1394043 C-13.44856445 57.1794043 -13.11856445 53.2194043 -12.77856445 49.1394043 C-12.38060026 46.3713986 -11.95956217 43.63831994 -11.46606445 40.8894043 C-11.19843652 39.35827663 -10.9315526 37.8270188 -10.6652832 36.2956543 C-10.52268066 35.47967773 -10.38007813 34.66370117 -10.2331543 33.82299805 C-9.72760929 30.83859915 -9.2608448 27.8494805 -8.7980957 24.8581543 C-8.62898682 23.78597656 -8.45987793 22.71379883 -8.28564453 21.60913086 C-7.95392316 19.50285185 -7.62925191 17.39544735 -7.3125 15.28686523 C-4.92665619 0.38615246 -4.92665619 0.38615246 0 0 Z " fill="#2686B2" transform="translate(183.778564453125,81.860595703125)"/>
<path d="M0 0 C7.75684113 7.65058303 10.80951153 15.42744317 11.0234375 26.3125 C10.72160907 36.63503217 8.0643526 44.54445617 1.1484375 52.48046875 C-8.38737521 61.39737054 -21.21193483 63.87376299 -33.7890625 64.3125 C-34.706875 64.35117187 -35.6246875 64.38984375 -36.5703125 64.4296875 C-38.80970778 64.52299564 -41.04911504 64.60878185 -43.2890625 64.6875 C-43.22847656 65.50839111 -43.16789062 66.32928223 -43.10546875 67.17504883 C-42.87865889 70.27427477 -42.65546425 73.37373588 -42.43457031 76.47338867 C-42.29242563 78.45315883 -42.14626141 80.43263909 -42 82.41210938 C-41.47252692 89.85324746 -41.1489898 97.22765605 -41.2890625 104.6875 C-46.58346777 105.5518927 -51.73816697 105.75206064 -57.09765625 105.71875 C-58.13738586 105.71536621 -58.13738586 105.71536621 -59.19812012 105.71191406 C-60.89511034 105.70606489 -62.59208934 105.69709872 -64.2890625 105.6875 C-64.3391748 104.67139648 -64.38928711 103.65529297 -64.44091797 102.60839844 C-65.38334032 80.64263158 -65.38334032 80.64263158 -67.2890625 58.75 C-68.85927769 45.10788362 -69.2679389 31.34831977 -69.93740845 17.63917542 C-70.33134186 9.65191407 -70.80400019 1.66967514 -71.2890625 -6.3125 C-13.00075821 -10.97110398 -13.00075821 -10.97110398 0 0 Z " fill="#187D53" transform="translate(236.2890625,256.3125)"/>
<path d="M0 0 C-2.06400116 11.6235855 -5.07241198 22.89285963 -8.24023438 34.25732422 C-11.23741597 45.07684158 -14.02867391 55.93810206 -16.5534668 66.87719727 C-17.87772596 72.58103247 -19.38557111 78.22553357 -20.92578125 83.875 C-21.77664077 87.0699334 -22.54465322 90.27954111 -23.29296875 93.5 C-23.51412354 94.45100586 -23.73527832 95.40201172 -23.96313477 96.38183594 C-24.39747851 98.26404556 -24.82653255 100.14748531 -25.24975586 102.03222656 C-25.44835205 102.89299805 -25.64694824 103.75376953 -25.8515625 104.640625 C-26.11187256 105.79353027 -26.11187256 105.79353027 -26.37744141 106.96972656 C-27 109 -27 109 -29 112 C-31.43017578 112.43237305 -31.43017578 112.43237305 -34.4453125 112.51171875 C-35.52167969 112.54716797 -36.59804688 112.58261719 -37.70703125 112.61914062 C-38.83496094 112.64169922 -39.96289062 112.66425781 -41.125 112.6875 C-42.26066406 112.72166016 -43.39632812 112.75582031 -44.56640625 112.79101562 C-47.37750579 112.87369502 -50.18828553 112.94277937 -53 113 C-63.91424571 85.35601619 -63.91424571 85.35601619 -67.3125 76.1875 C-69.54840306 70.16580654 -71.90115849 64.20030594 -74.30078125 58.2421875 C-79.61276161 45.02168708 -84.78405113 31.74386126 -89.7109375 18.375 C-90.63653393 15.95162027 -91.60721906 13.61337386 -92.6640625 11.25 C-94 8 -94 8 -94 5 C-85.97875848 4.28586721 -78.05358138 3.85474503 -70 4 C-67.95595514 7.92084968 -66.29205124 11.7651788 -64.9140625 15.96484375 C-64.35827515 17.64682861 -64.35827515 17.64682861 -63.79125977 19.36279297 C-63.40639404 20.54244629 -63.02152832 21.72209961 -62.625 22.9375 C-62.01966431 24.77272217 -62.01966431 24.77272217 -61.40209961 26.64501953 C-60.26427103 30.09544628 -59.13148607 33.54748929 -58 37 C-54.88876497 46.45643626 -51.68246859 55.87933509 -48.44454956 65.29302979 C-47.98346805 66.63366899 -47.52279152 67.97444754 -47.06253052 69.31536865 C-46.41295795 71.20684818 -45.76120815 73.09757957 -45.109375 74.98828125 C-44.72749023 76.09727783 -44.34560547 77.20627441 -43.95214844 78.34887695 C-43.0839918 80.93082136 -43.0839918 80.93082136 -42 83 C-41.79020508 82.0402124 -41.79020508 82.0402124 -41.57617188 81.06103516 C-37.70241538 63.3831287 -33.64571077 45.75330646 -29.45343018 28.14846802 C-28.59710008 24.54852368 -27.75737942 20.9455721 -26.93847656 17.33691406 C-26.76196564 16.56650787 -26.58545471 15.79610168 -26.40359497 15.00234985 C-26.06517167 13.52346087 -25.73069799 12.04366053 -25.40084839 10.56283569 C-23.84916949 3.81731873 -23.84916949 3.81731873 -22 1 C-19.78515625 0.390625 -19.78515625 0.390625 -17.0625 0.25 C-15.60070312 0.16685547 -15.60070312 0.16685547 -14.109375 0.08203125 C-9.40377348 -0.0421115 -4.70658542 -0.08193282 0 0 Z " fill="#E54823" transform="translate(347,240)"/>
<path d="M0 0 C6.58276494 5.77960463 10.85869281 15.13296532 15.33203125 22.5859375 C18.06735317 27.13993158 20.93238557 31.59528302 23.85546875 36.03125 C25 38 25 38 25 40 C21.65608428 40.96980469 18.45192096 41.25103445 14.98144531 41.46484375 C13.76628235 41.54162354 12.55111938 41.61840332 11.2991333 41.69750977 C9.98870056 41.77670654 8.67826782 41.85590332 7.328125 41.9375 C5.96292691 42.02296172 4.59775385 42.1088241 3.23260498 42.19506836 C-0.36114022 42.42135288 -3.9551206 42.64362532 -7.54919434 42.86462402 C-13.2868636 43.21755958 -19.02429201 43.57421087 -24.76145172 43.93533325 C-26.75528172 44.05990138 -28.74931324 44.18123037 -30.74334717 44.30249023 C-36.86968428 44.68560615 -42.91692719 45.1887846 -49 46 C-53.41097842 46.36615243 -57.8268275 46.648593 -62.24389648 46.92993164 C-64.29767579 47.06154998 -66.35096456 47.19949411 -68.40429688 47.33789062 C-75.94487632 47.83227095 -83.44232731 48.13430115 -91 48 C-91 47.34 -91 46.68 -91 46 C-89.48848454 44.64902626 -87.91186687 43.37072655 -86.3125 42.125 C-82.92529832 39.44237128 -79.68384461 36.75057669 -76.5859375 33.73828125 C-76.01963623 33.19091309 -75.45333496 32.64354492 -74.86987305 32.07958984 C-73.76583283 31.00198507 -72.67303478 29.91271554 -71.59301758 28.81103516 C-69.07649943 26.37180808 -67.37486691 25.07279887 -63.90234375 24.3984375 C-60.22709257 25.16019885 -58.90544688 26.44692768 -56.375 29.1875 C-55.61058594 30.00476563 -54.84617188 30.82203125 -54.05859375 31.6640625 C-51.95506305 34.05099107 -49.89642441 36.44394971 -48 39 C-44.78070488 37.58435241 -42.64706055 35.8868688 -40.18115234 33.39233398 C-39.44714203 32.65494492 -38.71313171 31.91755585 -37.95687866 31.15782166 C-37.17446808 30.36195145 -36.3920575 29.56608124 -35.5859375 28.74609375 C-34.77508698 27.93004166 -33.96423645 27.11398956 -33.1288147 26.27320862 C-30.53942271 23.66600207 -27.95681313 21.05221012 -25.375 18.4375 C-22.7851857 15.82009876 -20.19394268 13.20415351 -17.59976196 10.59107971 C-15.98549688 8.96452551 -14.37391194 7.33530632 -12.76522827 5.70323181 C-12.03752228 4.9689949 -11.30981628 4.234758 -10.56005859 3.47827148 C-9.91926361 2.82922348 -9.27846863 2.18017548 -8.61825562 1.51145935 C-5.58902605 -1.31785718 -3.88637019 -1.1753612 0 0 Z " fill="#187E54" transform="translate(290,148)"/>
<path d="M0 0 C-0.96355353 11.52164009 -0.96355353 11.52164009 -2 17 C-10.07953776 18.81344335 -17.73252149 19.23658921 -26 19 C-25.69658691 20.10230957 -25.39317383 21.20461914 -25.08056641 22.34033203 C-23.82696316 27.36867239 -23.25507424 32.40837668 -22.7109375 37.5546875 C-22.60278717 38.53744659 -22.49463684 39.52020569 -22.38320923 40.53274536 C-22.04197276 43.64629208 -21.70851172 46.76061743 -21.375 49.875 C-21.14371167 51.98963616 -20.91194558 54.10422013 -20.6796875 56.21875 C-20.2594586 60.06855309 -19.83938974 63.91836522 -19.42724609 67.76904297 C-19.34445404 68.53989227 -19.26166199 69.31074158 -19.17636108 70.10494995 C-19 72 -19 72 -19 74 C-24.94 74.33 -30.88 74.66 -37 75 C-37.18175781 73.46214844 -37.36351562 71.92429687 -37.55078125 70.33984375 C-37.80464847 68.20572452 -38.05855802 66.07161033 -38.3125 63.9375 C-38.44567627 62.80876465 -38.57885254 61.6800293 -38.71606445 60.51708984 C-39.37766468 54.96460894 -40.06684713 49.42104522 -40.8671875 43.88671875 C-42.19125751 34.6761664 -43.29865171 25.56448098 -43.4375 16.25 C-43.45965576 15.4573877 -43.48181152 14.66477539 -43.50463867 13.84814453 C-43.49246306 10.70266162 -43.46885597 8.58133404 -41.453125 6.08203125 C-38.15148625 4.62573518 -34.85312701 3.98545418 -31.3125 3.4375 C-30.57225586 3.31528076 -29.83201172 3.19306152 -29.06933594 3.06713867 C-8.61770142 -0.21711263 -8.61770142 -0.21711263 0 0 Z " fill="#E44924" transform="translate(172,126)"/>
<path d="M0 0 C0.72445312 -0.020625 1.44890625 -0.04125 2.1953125 -0.0625 C6.99855655 -0.09730612 10.19084483 0.64989151 14.375 3.25 C18.94312457 8.29068918 18.71089108 13.55841764 18.66015625 20.07421875 C18.19943368 25.2052797 16.42823378 27.38215979 12.64453125 30.82421875 C9.70410018 32.67147751 7.24905162 32.98825247 3.8125 33.4375 C2.67683594 33.59605469 1.54117188 33.75460937 0.37109375 33.91796875 C-4.61391254 34.44040905 -9.61958355 34.31666292 -14.625 34.25 C-14.96577314 30.62566012 -15.2962218 27.00044609 -15.625 23.375 C-15.72039062 22.36179687 -15.81578125 21.34859375 -15.9140625 20.3046875 C-16.48595879 13.93212887 -16.75270164 7.64749765 -16.625 1.25 C-11.05612355 0.47060871 -5.62148378 0.04044233 0 0 Z " fill="#F7F6ED" transform="translate(205.625,266.75)"/>
<path d="M0 0 C-0.16326782 1.05852173 -0.16326782 1.05852173 -0.32983398 2.13842773 C-1.25373926 8.13556708 -2.17348238 14.13330633 -3.08731079 20.13198853 C-3.61022163 23.56269279 -4.13474652 26.99314948 -4.65942383 30.42358398 C-4.93058719 32.1988746 -5.20108332 33.97426725 -5.47094727 35.74975586 C-5.86558573 38.34516225 -6.2626339 40.94019021 -6.66015625 43.53515625 C-6.83986717 44.72263206 -6.83986717 44.72263206 -7.02320862 45.93409729 C-7.54656584 49.33678921 -8.12913682 52.66993023 -9 56 C-15.15234375 56.09765625 -15.15234375 56.09765625 -17 56 C-18.51483341 54.48516659 -18.32839044 52.9935663 -18.55664062 50.88256836 C-18.65344116 50.00753159 -18.7502417 49.13249481 -18.84997559 48.23094177 C-19.00158142 46.79984825 -19.00158142 46.79984825 -19.15625 45.33984375 C-19.2634436 44.36141006 -19.37063721 43.38297638 -19.4810791 42.37489319 C-19.82483388 39.22952758 -20.1625718 36.08355002 -20.5 32.9375 C-20.83871043 29.81659418 -21.17863981 26.69582342 -21.5189209 23.5750885 C-21.73048734 21.63075037 -21.94091313 19.68628767 -22.15002441 17.74168396 C-22.71699705 12.48724795 -23.32829847 7.24210901 -24 2 C-20.75033015 1.66339508 -17.50021572 1.33128921 -14.25 1 C-13.32960937 0.90460938 -12.40921875 0.80921875 -11.4609375 0.7109375 C-10.12675781 0.57558594 -10.12675781 0.57558594 -8.765625 0.4375 C-7.94868164 0.35371094 -7.13173828 0.26992187 -6.29003906 0.18359375 C-4.19917501 0.01596798 -2.09757262 0 0 0 Z " fill="#F7F5EC" transform="translate(170,143)"/>
<path d="M0 0 C3.83084349 2.61193874 6.65161815 5.67823629 8.75 9.875 C9.29099901 16.15058851 8.50004792 20.70291556 4.75 25.875 C-0.51579782 30.06614521 -4.54882928 31.32931666 -11.25 30.875 C-16.92549553 28.83182161 -20.54873721 25.27752559 -23.25 19.875 C-24.05942418 13.47922202 -23.21038249 8.06567883 -19.25 2.875 C-13.71129856 -2.21888345 -6.8523435 -2.37196506 0 0 Z " fill="#197E54" transform="translate(227.25,126.125)"/>
<path d="M0 0 C0 0.33 0 0.66 0 1 C-0.60328125 1.10957031 -1.2065625 1.21914062 -1.828125 1.33203125 C-7.93684987 2.50797128 -7.93684987 2.50797128 -13 6 C-12.67012361 3.52592708 -12.42027913 2.3362233 -10.4375 0.75 C-6.89085382 -0.34127575 -3.70471601 -0.12349053 0 0 Z " fill="#4CA38D" transform="translate(131,201)"/>
</svg>
