<?xml version="1.0" encoding="UTF-8"?>
<svg version="1.1" xmlns="http://www.w3.org/2000/svg" width="2587" height="645">
<path d="M0 0 C22.935 -0.0825 45.87 -0.165 69.5 -0.25 C80.29235352 -0.30462402 80.29235352 -0.30462402 91.30273438 -0.36035156 C100.20800781 -0.37841797 100.20800781 -0.37841797 104.40002441 -0.3817749 C107.27743315 -0.38544517 110.1545353 -0.40020279 113.03186035 -0.42230225 C148.9870511 -0.68597962 186.5231303 3.16626536 214 29 C214.79664063 29.72960937 215.59328125 30.45921875 216.4140625 31.2109375 C228.89004859 43.1027637 236.87052676 58.32553934 241 75 C241.26490234 76.01501587 241.26490234 76.01501587 241.53515625 77.05053711 C243.3923759 84.9843473 243.39751005 92.95910811 243.375 101.0625 C243.37445618 101.79643982 243.37391235 102.53037964 243.37335205 103.28656006 C243.33560762 114.35051087 242.70313697 124.47711079 239 135 C238.78569336 135.6398584 238.57138672 136.2797168 238.35058594 136.93896484 C230.23066557 160.89095702 212.48777244 178.62576034 190.22119141 189.93164062 C177.14778169 196.2197524 163.32961984 199.92788496 149 202 C147.16538208 202.26695679 147.16538208 202.26695679 145.29370117 202.53930664 C137.80229182 203.3466491 130.2397065 203.1227667 122.71484375 203.09765625 C121.23474159 203.09618321 119.75463892 203.09516473 118.27453613 203.09460449 C112.8288494 203.08939358 107.38317387 203.07543237 101.9375 203.0625 C89.748125 203.041875 77.55875 203.02125 65 203 C65 228.41 65 253.82 65 280 C43.55 280 22.1 280 0 280 C0 187.6 0 95.2 0 0 Z M65 53 C65 85.01 65 117.02 65 150 C73.311875 150.04125 81.62375 150.0825 90.1875 150.125 C92.76328857 150.14320801 95.33907715 150.16141602 97.99291992 150.18017578 C133.98456255 151.04915035 133.98456255 151.04915035 165 135 C174.81295924 123.06350744 177.93302104 110.25065299 177 95 C175.81892233 86.86265387 173.67086779 79.79885626 169 73 C168.58105469 72.38640625 168.16210938 71.7728125 167.73046875 71.140625 C158.90319914 59.64227957 144.81111046 55.46107931 131.0497427 53.64682198 C124.17085187 52.8056044 117.33564654 52.74654589 110.41015625 52.8046875 C109.24577026 52.80670166 108.08138428 52.80871582 106.88171387 52.81079102 C102.60860143 52.82110951 98.33554597 52.84902963 94.0625 52.875 C84.471875 52.91625 74.88125 52.9575 65 53 Z " fill="#484C70" transform="translate(66,168)"/>
<path d="M0 0 C21.12 0 42.24 0 64 0 C64.33 33.33 64.66 66.66 65 101 C68.96 98.03 72.92 95.06 77 92 C100.88675167 77.46465749 130.83084992 74.28058856 157.86669922 80.45214844 C173.31003637 84.41814164 186.68154041 91.70129339 198 103 C198.62519531 103.61359375 199.25039063 104.2271875 199.89453125 104.859375 C221.02825491 127.18574673 221.46929967 158.19375861 221.30418181 186.99376988 C221.28520299 190.87208652 221.28364812 194.750413 221.28010559 198.62876892 C221.27084653 205.94520738 221.24631759 213.26150853 221.21605712 220.577887 C221.17598984 230.48411995 221.16000852 240.39039146 221.14255047 250.29668522 C221.11449067 265.86455931 221.0546809 281.43214389 221 297 C200.21 297 179.42 297 158 297 C157.96261719 288.29496094 157.92523438 279.58992188 157.88671875 270.62109375 C157.85256052 264.37891389 157.81656216 258.13676572 157.77792263 251.89461422 C157.72820832 243.82404703 157.68272671 235.75353177 157.65356445 227.68286133 C157.63044813 221.28927797 157.5969009 214.89584481 157.55129844 208.50238091 C157.52754801 205.12324847 157.50870123 201.74426309 157.50238609 198.36504936 C157.95690297 169.25186609 157.95690297 169.25186609 145 144 C134.05787786 135.18151341 121.80972049 132.70896521 108 134 C98.49874723 135.45413274 89.73029021 138.09451808 82 144 C81.05253906 144.71736328 81.05253906 144.71736328 80.0859375 145.44921875 C70.22812491 154.06937645 65.88900322 168.43061798 64.71346474 181.08431435 C64.59709371 184.19262808 64.56343952 187.28919227 64.56762695 190.3996582 C64.5574353 191.56223145 64.54724365 192.72480469 64.53674316 193.92260742 C64.50686399 197.71538265 64.49738563 201.50790431 64.48828125 205.30078125 C64.47141593 207.95022827 64.45340578 210.599643 64.43388367 213.24906921 C64.39046753 219.47827864 64.36176872 225.70746241 64.33856028 231.93677634 C64.30869934 239.73592889 64.25883147 247.53493835 64.20898438 255.33398438 C64.12030318 269.22261229 64.06152072 283.11116633 64 297 C42.88 297 21.76 297 0 297 C0 198.99 0 100.98 0 0 Z " fill="#484C70" transform="translate(354,151)"/>
<path d="M0 0 C23.43 0 46.86 0 71 0 C74.0063134 6.01262679 76.90285506 11.87521792 79.4609375 18.05859375 C79.76780487 18.79178833 80.07467224 19.52498291 80.39083862 20.28039551 C81.04703549 21.84891524 81.70175914 23.41805201 82.35510254 24.98776245 C84.12753185 29.24504006 85.91207862 33.49723946 87.6953125 37.75 C88.24016296 39.05045509 88.24016296 39.05045509 88.79602051 40.37718201 C92.23701078 48.58281644 95.73556432 56.76311039 99.25 64.9375 C105.02735017 78.38425452 110.77269582 91.84435241 116.5 105.3125 C116.91118073 106.27941772 117.32236145 107.24633545 117.7460022 108.24255371 C118.1602243 109.21664185 118.57444641 110.19072998 119.0012207 111.19433594 C119.85627858 113.20507982 120.71134048 115.21582198 121.56640625 117.2265625 C121.99822708 118.24206177 122.43004791 119.25756104 122.87495422 120.30383301 C126.05447414 127.77986312 129.23779408 135.25427005 132.42296982 142.72789192 C133.21196802 144.57918991 134.00090522 146.43051387 134.78982544 148.28184509 C137.86271673 155.49275643 137.86271673 155.49275643 140.93652344 162.70327759 C142.35263784 166.02466064 143.76816439 169.34629371 145.18359375 172.66796875 C145.59737778 173.63797821 146.0111618 174.60798767 146.43748474 175.60739136 C149.327009 182.39032973 152.17300664 189.19077378 155 196 C157.30057024 193.01859275 158.89326993 190.26464507 160.35546875 186.78515625 C160.80438477 185.72627197 161.25330078 184.6673877 161.71582031 183.57641602 C162.20147461 182.41682373 162.68712891 181.25723145 163.1875 180.0625 C163.98632001 178.17389178 164.78730457 176.28621026 165.58834839 174.39854431 C166.15921038 173.05298815 166.72944641 171.70716626 167.29910278 170.36109924 C170.40777956 163.01964466 173.57347502 155.70309287 176.74273682 148.38763428 C177.76252574 146.03358598 178.78152587 143.67919771 179.80029297 141.32470703 C181.18287058 138.12945556 182.56568115 134.93430513 183.94873047 131.73925781 C187.23834456 124.13940327 190.52547105 116.53847292 193.8125 108.9375 C194.2997052 107.81095505 194.2997052 107.81095505 194.79675293 106.66165161 C199.96492244 94.711254 205.12793047 82.75863227 210.28887939 70.80511475 C223.00822118 41.34544488 223.00822118 41.34544488 228.89648438 27.72143555 C229.58040586 26.13882454 230.26416732 24.55614437 230.94775391 22.97338867 C231.89050451 20.79065981 232.83385051 18.60818919 233.77734375 16.42578125 C234.04630966 15.80270584 234.31527557 15.17963043 234.59239197 14.53767395 C236.69527658 9.67621479 238.84842308 4.84104808 241 0 C262.78 0 284.56 0 307 0 C301.26141109 14.92033116 301.26141109 14.92033116 298.35546875 21.5 C298.02877701 22.24649307 297.70208527 22.99298615 297.36549377 23.76210022 C296.66910029 25.35261614 295.97144359 26.9425795 295.27258301 28.53201294 C293.38292271 32.82998567 291.50296209 37.13220515 289.62109375 41.43359375 C289.2357547 42.31357529 288.85041565 43.19355682 288.45339966 44.10020447 C284.52452205 53.07566561 280.63412765 62.06760322 276.75 71.0625 C276.08035228 72.61264318 275.41067466 74.16277343 274.7409668 75.71289062 C273.75903925 77.98570201 272.77712993 80.25852122 271.79536438 82.53140259 C268.70282608 89.69016877 265.60206055 96.84535602 262.5 104 C257.66022947 115.16388814 252.82847689 126.3312232 248 137.5 C243.10848697 148.8143745 238.21439173 160.12761775 233.3125 171.4375 C233.04869537 172.04616913 232.78489075 172.65483826 232.51309204 173.2819519 C230.15454319 178.72358295 227.79551231 184.16500501 225.43652344 189.60644531 C222.49853797 196.38373973 219.56125404 203.16133676 216.62541199 209.93955994 C215.10035229 213.46046876 213.5747336 216.98113414 212.04833984 220.50146484 C209.98931542 225.25043791 207.93173789 230.00003624 205.875 234.75 C205.53688293 235.53065826 205.19876587 236.31131653 204.85040283 237.1156311 C201.39534959 245.09588039 197.95256358 253.08067612 194.57421875 261.09375 C194.31320374 261.71276184 194.05218872 262.33177368 193.78326416 262.96954346 C192.5793095 265.82774738 191.37977888 268.68772752 190.18505859 271.54980469 C189.77465332 272.52852539 189.36424805 273.50724609 188.94140625 274.515625 C188.41075562 275.78841309 188.41075562 275.78841309 187.86938477 277.08691406 C187 279 187 279 186 280 C183.94443339 280.09413687 181.88559819 280.11742998 179.82788086 280.11352539 C178.86205833 280.11374443 178.86205833 280.11374443 177.87672424 280.1139679 C175.73939697 280.11326885 173.60215587 280.10547691 171.46484375 280.09765625 C169.98653715 280.09579204 168.50822993 280.09436815 167.02992249 280.09336853 C163.13201198 280.08954359 159.23413851 280.07971352 155.33624268 280.06866455 C151.36153667 280.05844992 147.38682471 280.0538708 143.41210938 280.04882812 C135.608056 280.03809122 127.80403318 280.02101509 120 280 C108.26207512 252.87554663 96.55068308 225.73969123 84.84667969 198.60058594 C80.68783755 188.95725964 76.52795726 179.31438118 72.36813354 169.67147827 C70.08263288 164.37344597 67.79716922 159.0753977 65.51171875 153.77734375 C65.05855789 152.72684341 64.60539703 151.67634308 64.13850403 150.5940094 C61.35819008 144.14872633 58.57805519 137.70336605 55.79804993 131.25794983 C47.02965384 110.92851392 38.26058054 90.59937326 29.4831543 70.27383423 C28.3262825 67.59442145 27.16991684 64.91479075 26.01367188 62.23510742 C22.33918058 53.7208574 18.65874346 45.20927354 14.9634552 36.70402527 C13.17549092 32.58789308 11.39016725 28.47061808 9.60507202 24.35324097 C8.74851074 22.37962104 7.89063662 20.40657034 7.03140259 18.43411255 C5.8471171 15.71528289 4.66722396 12.99458722 3.48828125 10.2734375 C3.13306396 9.46115189 2.77784668 8.64886627 2.41186523 7.81196594 C0 2.22773093 0 2.22773093 0 0 Z " fill="#484C70" transform="translate(1404,168)"/>
<path d="M0 0 C20.1619231 17.76593854 31.55349227 42.51303613 34.44555664 69.05664062 C34.53358457 70.76384891 34.59490819 72.47259009 34.63305664 74.18164062 C34.68333008 75.25414062 34.73360352 76.32664062 34.78540039 77.43164062 C35.60534615 107.86802738 25.75631066 135.35877896 4.96508789 157.77929688 C-13.9488463 177.26350044 -38.45363992 188.88456926 -65.36694336 192.18164062 C-66.23061523 192.2925 -67.09428711 192.40335938 -67.98413086 192.51757812 C-103.28283562 196.39310357 -137.51703704 187.81685169 -165.30444336 165.55664062 C-167.00394522 164.11231179 -168.69287328 162.65537117 -170.36694336 161.18164062 C-170.98827148 160.64410156 -171.60959961 160.1065625 -172.24975586 159.55273438 C-192.42283675 140.83399188 -202.16561571 112.80775103 -203.53100586 85.95507812 C-204.25414183 55.78058609 -195.12097354 28.01869656 -174.32788086 5.93164062 C-168.1773647 -0.47351183 -161.98083878 -6.17106321 -154.36694336 -10.81835938 C-153.32151367 -11.47320312 -152.27608398 -12.12804687 -151.19897461 -12.80273438 C-105.01068437 -40.97069369 -40.73435904 -35.00821786 0 0 Z M-125.36694336 40.18164062 C-137.26291593 56.00488245 -140.87960635 73.36347236 -138.47241211 92.86523438 C-136.91617425 103.48992003 -132.83233225 112.64802249 -126.36694336 121.18164062 C-125.25319336 122.72851562 -125.25319336 122.72851562 -124.11694336 124.30664062 C-115.59462342 133.21633875 -103.14227091 140.11037034 -90.62084961 140.41992188 C-72.93548115 140.7677336 -59.35468944 138.34351409 -45.67944336 126.11914062 C-33.76553456 113.40140183 -29.04187371 95.97073169 -29.41723633 78.89355469 C-30.41912567 62.09264109 -35.58123407 46.79712017 -48.07397461 35.02929688 C-71.18462996 16.4069119 -105.14960184 17.8619759 -125.36694336 40.18164062 Z " fill="#484C70" transform="translate(1248.366943359375,258.818359375)"/>
<path d="M0 0 C20.1619231 17.76593854 31.55349227 42.51303613 34.44555664 69.05664062 C34.53358457 70.76384891 34.59490819 72.47259009 34.63305664 74.18164062 C34.68333008 75.25414062 34.73360352 76.32664062 34.78540039 77.43164062 C35.60534615 107.86802738 25.75631066 135.35877896 4.96508789 157.77929688 C-13.9488463 177.26350044 -38.45363992 188.88456926 -65.36694336 192.18164062 C-66.23061523 192.2925 -67.09428711 192.40335938 -67.98413086 192.51757812 C-103.28283562 196.39310357 -137.51703704 187.81685169 -165.30444336 165.55664062 C-167.00394522 164.11231179 -168.69287328 162.65537117 -170.36694336 161.18164062 C-170.98827148 160.64410156 -171.60959961 160.1065625 -172.24975586 159.55273438 C-192.42283675 140.83399188 -202.16561571 112.80775103 -203.53100586 85.95507812 C-204.25414183 55.78058609 -195.12097354 28.01869656 -174.32788086 5.93164062 C-168.1773647 -0.47351183 -161.98083878 -6.17106321 -154.36694336 -10.81835938 C-153.32151367 -11.47320312 -152.27608398 -12.12804687 -151.19897461 -12.80273438 C-105.01068437 -40.97069369 -40.73435904 -35.00821786 0 0 Z M-125.36694336 40.18164062 C-137.26291593 56.00488245 -140.87960635 73.36347236 -138.47241211 92.86523438 C-136.91617425 103.48992003 -132.83233225 112.64802249 -126.36694336 121.18164062 C-125.25319336 122.72851562 -125.25319336 122.72851562 -124.11694336 124.30664062 C-115.59462342 133.21633875 -103.14227091 140.11037034 -90.62084961 140.41992188 C-72.93548115 140.7677336 -59.35468944 138.34351409 -45.67944336 126.11914062 C-33.76553456 113.40140183 -29.04187371 95.97073169 -29.41723633 78.89355469 C-30.41912567 62.09264109 -35.58123407 46.79712017 -48.07397461 35.02929688 C-71.18462996 16.4069119 -105.14960184 17.8619759 -125.36694336 40.18164062 Z " fill="#484C70" transform="translate(819.366943359375,258.818359375)"/>
<path d="M0 0 C17.63353243 16.30776669 23.41627301 39.72767573 24.875 62.9375 C25.00131073 67.40089453 25.0021086 71.86025672 24.98852539 76.32519531 C24.98867142 77.60466537 24.98881744 78.88413544 24.9889679 80.20237732 C24.98925182 83.67057886 24.98342123 87.13874497 24.97639394 90.60693836 C24.97009234 94.24640022 24.96955126 97.88586312 24.96836853 101.52532959 C24.96527511 108.39917694 24.95708885 115.27300816 24.94701904 122.14684844 C24.93369229 131.44819046 24.92834191 140.74953698 24.92251682 150.05088615 C24.91314738 164.67976949 24.89321526 179.30861881 24.875 193.9375 C5.075 193.9375 -14.725 193.9375 -35.125 193.9375 C-35.455 186.6775 -35.785 179.4175 -36.125 171.9375 C-37.383125 173.443125 -38.64125 174.94875 -39.9375 176.5 C-52.57445356 190.47962987 -71.04904852 196.37313409 -89.4609375 197.8125 C-114.36974762 198.98124182 -140.01552397 195.84689542 -159.74609375 179.125 C-172.05146619 167.80971499 -180.08501025 153.89248449 -181.125 136.9375 C-181.17785156 136.14085937 -181.23070312 135.34421875 -181.28515625 134.5234375 C-181.8420306 118.1077502 -176.79280403 101.58610137 -165.5 89.4375 C-144.19154858 70.07799231 -114.80961663 66.73004479 -87.26953125 66.83984375 C-85.87277782 66.84171381 -84.47602373 66.84313493 -83.07926941 66.84413147 C-79.44125488 66.8479104 -75.80328165 66.85769995 -72.1652832 66.86883545 C-68.43766844 66.87915022 -64.71004686 66.88365044 -60.98242188 66.88867188 C-53.69659596 66.89932741 -46.41080381 66.91634669 -39.125 66.9375 C-39.41561038 64.87020342 -39.71400177 62.80399976 -40.015625 60.73828125 C-40.18094727 59.58755127 -40.34626953 58.43682129 -40.51660156 57.2512207 C-42.07516506 48.76230322 -46.44912326 40.45834756 -53.41796875 35.2109375 C-69.9775721 24.78737322 -91.96767378 24.31235666 -110.6875 28.5625 C-122.96216001 31.59514456 -134.53897406 35.95189693 -145.125 42.9375 C-146.78792996 43.94370163 -148.45370263 44.94525866 -150.125 45.9375 C-158.16587115 31.44826102 -165.82752289 16.81513361 -173.125 1.9375 C-156.42397936 -17.33290843 -118.86214776 -23.16461454 -94.69482422 -24.921875 C-61.01444016 -26.76492091 -26.31432412 -23.14417326 0 0 Z M-111.6875 111.25 C-117.178479 117.30415633 -119.54144742 123.37009269 -119.39453125 131.50390625 C-118.59574228 138.71616027 -115.04236193 143.95182744 -109.46875 148.43359375 C-103.38012385 152.3404622 -96.31166948 154.41483313 -89.125 154.9375 C-88.09246094 155.03224609 -88.09246094 155.03224609 -87.0390625 155.12890625 C-71.98860679 155.90392972 -58.60066374 150.03264943 -47.36328125 140.48828125 C-40.26783682 132.40219885 -38.24284052 126.01486552 -38.75 115.3125 C-38.77707031 114.21292969 -38.80414062 113.11335937 -38.83203125 111.98046875 C-38.90202557 109.29735312 -39.0001373 106.61852633 -39.125 103.9375 C-44.85009454 103.91249455 -50.57515622 103.89449772 -56.30029297 103.88256836 C-58.24170486 103.87758708 -60.1831131 103.87079964 -62.12451172 103.86206055 C-88.08999739 102.51618512 -88.08999739 102.51618512 -111.6875 111.25 Z " fill="#484C70" transform="translate(1879.125,254.0625)"/>
<path d="M0 0 C20.79 0 41.58 0 63 0 C63.04898437 7.92515625 63.09796875 15.8503125 63.1484375 24.015625 C63.18387539 29.07423055 63.21986476 34.13282042 63.2578125 39.19140625 C63.31782639 47.19838305 63.37593732 55.20532925 63.421875 63.21240234 C63.45909195 69.67697432 63.50554404 76.14142325 63.55806351 82.60588837 C63.5764161 85.05665653 63.59159236 87.50745087 63.60334396 89.95825958 C62.63578251 123.42669973 62.63578251 123.42669973 76 153 C82.9150399 159.80865467 92.406826 163.28939452 102 164 C102.63808594 164.0515625 103.27617187 164.103125 103.93359375 164.15625 C116.65960005 164.71666129 129.20106803 160.78534615 139.1875 152.9375 C150.5295942 142.30571877 154.50369626 126.42268512 155.1053791 111.36231804 C155.16159844 108.41247606 155.18889416 105.46376006 155.20532227 102.51342773 C155.21522186 101.40020645 155.22512146 100.28698517 155.23532104 99.14002991 C155.2667194 95.4879056 155.29160721 91.83576832 155.31640625 88.18359375 C155.33699451 85.64054541 155.35799146 83.09750036 155.37937927 80.55445862 C155.4287928 74.56239782 155.47410757 68.57031979 155.51740164 62.5782128 C155.57183093 55.08010262 155.63259172 47.5820454 155.69335938 40.08398438 C155.80161753 26.72269711 155.90036745 13.36136055 156 0 C176.79 0 197.58 0 219 0 C219 71.28 219 142.56 219 216 C199.2 216 179.4 216 159 216 C158.67 208.74 158.34 201.48 158 194 C156.39125 195.52625 154.7825 197.0525 153.125 198.625 C138.50237338 212.04386878 118.72175802 219.02862983 99 220 C97.51886719 220.07927734 97.51886719 220.07927734 96.0078125 220.16015625 C70.69778266 220.84501588 44.99529377 214.43882321 26 197 C8.4836422 180.21593141 0.6333605 155.92312868 -0.08998299 132.02740288 C-0.122558 128.54643656 -0.12370069 125.06679921 -0.11352539 121.58569336 C-0.11367142 120.26764709 -0.11381744 118.94960083 -0.1139679 117.59161377 C-0.11425302 114.00340429 -0.10840259 110.41522873 -0.10139394 106.82702708 C-0.09511274 103.06743085 -0.09455285 99.3078337 -0.09336853 95.54823303 C-0.09026921 88.44054068 -0.08207479 81.33286384 -0.07201904 74.2251783 C-0.05871632 64.61233071 -0.05334669 54.99947882 -0.04751682 45.38662434 C-0.03813387 30.25773796 -0.01820564 15.1288843 0 0 Z " fill="#484C70" transform="translate(1958,232)"/>
<path d="M0 0 C20.79 0 41.58 0 63 0 C63 15.51 63 31.02 63 47 C80.82 47 98.64 47 117 47 C117 63.17 117 79.34 117 96 C99.18 96 81.36 96 63 96 C63.11996624 112.8428605 63.11996624 112.8428605 63.2578125 129.68554688 C63.31803086 136.55880895 63.37619211 143.43204387 63.421875 150.30541992 C63.45885297 155.84925043 63.50524664 161.39293072 63.55806351 166.93663216 C63.57654109 169.04760149 63.59167331 171.15860295 63.60334396 173.2696209 C63.62032032 176.23515962 63.64938229 179.20035927 63.68115234 182.16577148 C63.68331253 183.0310849 63.68547272 183.89639832 63.68769836 184.78793335 C63.81805657 194.3647632 65.35534365 202.74467501 72 210 C80.31492944 215.70570772 90.10616237 216.27907492 99.86328125 214.46875 C105.23697164 212.93102211 110.08479931 210.63964482 115 208 C118.61970996 215.87872193 121.82562613 223.90653014 124.96582031 231.9855957 C125.57640225 233.5482854 126.19336521 235.10849559 126.81640625 236.66625977 C127.72314454 238.93476532 128.60969198 241.21025359 129.4921875 243.48828125 C129.77432098 244.18311111 130.05645447 244.87794098 130.34713745 245.59382629 C132.17517506 250.40453965 132.17517506 250.40453965 131.30224609 253.37182617 C123.74119146 262.82527075 105.29627968 265.19972797 94.02124023 266.48217773 C69.97499653 268.85999759 44.80772682 265.75312349 25 251 C24.22269531 250.42894531 23.44539063 249.85789062 22.64453125 249.26953125 C8.05400699 237.49163817 2.37879637 219.95277451 0 202 C-0.24022028 198.29747846 -0.2551844 194.6164907 -0.22705078 190.90722656 C-0.22734283 189.87159576 -0.22763489 188.83596497 -0.22793579 187.76895142 C-0.22655779 184.39275321 -0.21106953 181.01678399 -0.1953125 177.640625 C-0.19157692 175.28123088 -0.18873253 172.9218352 -0.18673706 170.56243896 C-0.17914352 164.38773223 -0.15953223 158.21312133 -0.1373291 152.03845215 C-0.11677799 145.72356461 -0.10771562 139.40866142 -0.09765625 133.09375 C-0.07628193 120.72911804 -0.04113511 108.36458203 0 96 C-10.89 96 -21.78 96 -33 96 C-33 79.83 -33 63.66 -33 47 C-22.11 47 -11.22 47 0 47 C0 31.49 0 15.98 0 0 Z " fill="#484C70" transform="translate(2362,185)"/>
<path d="M0 0 C20.79 0 41.58 0 63 0 C63 15.51 63 31.02 63 47 C80.82 47 98.64 47 117 47 C117 63.17 117 79.34 117 96 C99.18 96 81.36 96 63 96 C63.11996624 112.8428605 63.11996624 112.8428605 63.2578125 129.68554688 C63.31803086 136.55880895 63.37619211 143.43204387 63.421875 150.30541992 C63.45885297 155.84925043 63.50524664 161.39293072 63.55806351 166.93663216 C63.57654109 169.04760149 63.59167331 171.15860295 63.60334396 173.2696209 C63.62032032 176.23515962 63.64938229 179.20035927 63.68115234 182.16577148 C63.68331253 183.0310849 63.68547272 183.89639832 63.68769836 184.78793335 C63.81805657 194.3647632 65.35534365 202.74467501 72 210 C80.31492944 215.70570772 90.10616237 216.27907492 99.86328125 214.46875 C105.23697164 212.93102211 110.08479931 210.63964482 115 208 C118.61970996 215.87872193 121.82562613 223.90653014 124.96582031 231.9855957 C125.57640225 233.5482854 126.19336521 235.10849559 126.81640625 236.66625977 C127.72314454 238.93476532 128.60969198 241.21025359 129.4921875 243.48828125 C129.77432098 244.18311111 130.05645447 244.87794098 130.34713745 245.59382629 C132.17517506 250.40453965 132.17517506 250.40453965 131.30224609 253.37182617 C123.74119146 262.82527075 105.29627968 265.19972797 94.02124023 266.48217773 C69.97499653 268.85999759 44.80772682 265.75312349 25 251 C24.22269531 250.42894531 23.44539062 249.85789062 22.64453125 249.26953125 C8.05400699 237.49163817 2.37879637 219.95277451 0 202 C-0.24022028 198.29747846 -0.2551844 194.6164907 -0.22705078 190.90722656 C-0.22734283 189.87159576 -0.22763489 188.83596497 -0.22793579 187.76895142 C-0.22655779 184.39275321 -0.21106953 181.01678399 -0.1953125 177.640625 C-0.19157692 175.28123088 -0.18873253 172.9218352 -0.18673706 170.56243896 C-0.17914352 164.38773223 -0.15953223 158.21312133 -0.1373291 152.03845215 C-0.11677799 145.72356461 -0.10771562 139.40866142 -0.09765625 133.09375 C-0.07628193 120.72911804 -0.04113511 108.36458203 0 96 C-10.89 96 -21.78 96 -33 96 C-33 79.83 -33 63.66 -33 47 C-22.11 47 -11.22 47 0 47 C0 31.49 0 15.98 0 0 Z " fill="#484C70" transform="translate(902,185)"/>
<path d="M0 0 C21.12 0 42.24 0 64 0 C64 98.01 64 196.02 64 297 C42.88 297 21.76 297 0 297 C0 198.99 0 100.98 0 0 Z " fill="#484C70" transform="translate(2234,151)"/>
</svg>
